<?xml version="1.0" encoding="UTF-8"?>
<svg xmlns="http://www.w3.org/2000/svg" xmlns:ns0="http://www.w3.org/2000/svg" version="1.1" viewBox="0 0 31.9 32">
  <defs>
    <style>
      .cls-1 {
        fill: #1ed660;
      }
    </style>
  </defs>
  <!-- Generator: Adobe Illustrator 28.7.1, SVG Export Plug-In . SVG Version: 1.2.0 Build 142)  -->
  <g>
    <g id="Capa_1">
      <path class="cls-1" d="M25.4,14.2c-5.2-3.1-13.7-3.3-18.6-1.9-.8.2-1.6-.2-1.9-1-.2-.8.2-1.6,1-1.9,5.7-1.7,15-1.4,21,2.1.7.4.9,1.3.5,2.1-.4.7-1.3.9-2.1.5M25.2,18.7c-.4.6-1.1.8-1.7.4-4.3-2.6-10.9-3.4-15.9-1.9-.7.2-1.4-.2-1.6-.8-.2-.7.2-1.4.8-1.6,5.8-1.8,13-.9,18,2.1.6.4.8,1.1.4,1.7M23.3,23.1c-.3.5-.9.6-1.4.3,0,0,0,0,0,0-3.8-2.3-8.5-2.8-14.1-1.5-.5.1-1.1-.2-1.2-.7,0,0,0,0,0,0-.1-.5.2-1.1.7-1.2,0,0,0,0,0,0,6.1-1.4,11.3-.8,15.5,1.8.5.3.6.9.3,1.4,0,0,0,0,0,0M15.9,0C7.1,0,0,7.2,0,16s7.2,16,16,16,16-7.2,16-16S24.8,0,15.9,0"/>
    </g>
  </g>
</svg>