<?xml version="1.0" encoding="UTF-8"?>
<svg id="Capa_1" xmlns="http://www.w3.org/2000/svg" viewBox="0 0 326.42 326.35">
  <defs>
    <style>
      .cls-1 {
        fill: #fff;
      }
    </style>
  </defs>
  <path class="cls-1" d="M230.98,14.8c82.18,37.96,116.4,132.22,82.4,211.49-37.85,88.25-136.69,122.13-216.89,85.48C12.72,273.48-22.09,178.33,14.41,96.82,52.01,12.84,149.45-22.5,230.98,14.8ZM248.83,138.03c.5.23,2.05.99,3.63,1.68,7.88,3.46,18.13.18,21.52-6.85,3.6-7.49.3-17.42-8.06-20.87-12.1-5-24.37-9.91-36.99-13.27-26.88-7.15-54.44-8.75-82.17-7.71-29.57,1.12-58.46,5.93-86.33,16.13-8.24,3.02-12.74,12.12-10.03,20.12,2.64,7.79,12.34,12.61,20.31,9.61,31.7-11.95,64.6-15.78,98.23-14.89,27.15.71,53.56,5.13,79.9,16.04ZM240.79,160.88l.16-.39c-6.17-2.21-12.27-4.65-18.52-6.6-24.59-7.65-49.8-10.79-75.52-9.96-25.41.82-50.12,5.26-73.74,14.83-2.52,1.02-4.99,3.22-6.47,5.52-3.14,4.9-2.59,10.71.59,14.57,4.01,4.86,9.62,6.53,15.79,4.1,21.99-8.66,44.91-12.66,68.41-12.84,30.54-.23,60.05,4.93,87.72,18.62,6.14,3.04,12.86.09,16.75-6.89,3.11-5.58,1.57-12.23-4.12-15.73-3.45-2.12-7.34-3.51-11.04-5.23ZM217.41,227.57c2.96,1.38,5.89,2.84,8.89,4.12,5.58,2.38,11.58.27,14.19-4.89,2.74-5.43,1-12.38-4.49-14.68-10.46-4.38-20.98-8.77-31.82-12.01-19.9-5.96-40.43-6.57-61.03-5.32-20.64,1.25-40.65,5.84-60.38,11.75-6.5,1.95-9.97,8.1-8.27,13.56,1.99,6.4,8.1,9.51,14.84,7.75,10.52-2.74,20.99-5.75,31.63-7.93,32.84-6.74,65.14-5.62,96.44,7.66Z"/>
</svg>